<mxfile host="app.diagrams.net" modified="2020-11-20T22:30:20.464Z" agent="5.0 (X11; Linux x86_64) AppleWebKit/537.36 (KHTML, like Gecko) Chrome/85.0.4183.102 Safari/537.36" etag="Ud8SDMyd-rKqH_tNjUFJ" version="13.6.6" type="github">
  <diagram id="CE0fjsKFniwbX-WwhrP7" name="Page-1">
    <mxGraphModel dx="1422" dy="806" grid="1" gridSize="10" guides="1" tooltips="1" connect="1" arrows="1" fold="1" page="1" pageScale="1" pageWidth="1169" pageHeight="827" math="0" shadow="0">
      <root>
        <mxCell id="0" />
        <mxCell id="1" parent="0" />
        <mxCell id="0hAFBkoV9jaoluaaZlGL-1" value="user: db" style="swimlane;fontStyle=0;childLayout=stackLayout;horizontal=1;startSize=26;fillColor=none;horizontalStack=0;resizeParent=1;resizeParentMax=0;resizeLast=0;collapsible=1;marginBottom=0;" parent="1" vertex="1">
          <mxGeometry x="100" y="40" width="140" height="90" as="geometry" />
        </mxCell>
        <mxCell id="0hAFBkoV9jaoluaaZlGL-2" value="email: str&#xa;password: hash&#xa;first_name: str&#xa;last_name: str&#xa;" style="text;strokeColor=none;fillColor=none;align=left;verticalAlign=top;spacingLeft=4;spacingRight=4;overflow=hidden;rotatable=0;points=[[0,0.5],[1,0.5]];portConstraint=eastwest;" parent="0hAFBkoV9jaoluaaZlGL-1" vertex="1">
          <mxGeometry y="26" width="140" height="64" as="geometry" />
        </mxCell>
        <mxCell id="0hAFBkoV9jaoluaaZlGL-10" value="membership: db" style="swimlane;fontStyle=0;childLayout=stackLayout;horizontal=1;startSize=26;fillColor=none;horizontalStack=0;resizeParent=1;resizeParentMax=0;resizeLast=0;collapsible=1;marginBottom=0;" parent="1" vertex="1">
          <mxGeometry x="260" y="130" width="140" height="80" as="geometry" />
        </mxCell>
        <mxCell id="0hAFBkoV9jaoluaaZlGL-11" value="user_id:str&#xa;community_id: str&#xa;is_joined: bool" style="text;strokeColor=none;fillColor=none;align=left;verticalAlign=top;spacingLeft=4;spacingRight=4;overflow=hidden;rotatable=0;points=[[0,0.5],[1,0.5]];portConstraint=eastwest;" parent="0hAFBkoV9jaoluaaZlGL-10" vertex="1">
          <mxGeometry y="26" width="140" height="54" as="geometry" />
        </mxCell>
        <mxCell id="0hAFBkoV9jaoluaaZlGL-5" value="community: db" style="swimlane;fontStyle=0;childLayout=stackLayout;horizontal=1;startSize=26;fillColor=none;horizontalStack=0;resizeParent=1;resizeParentMax=0;resizeLast=0;collapsible=1;marginBottom=0;" parent="1" vertex="1">
          <mxGeometry x="270" y="40" width="140" height="50" as="geometry" />
        </mxCell>
        <mxCell id="0hAFBkoV9jaoluaaZlGL-6" value="name: str&#xa;" style="text;strokeColor=none;fillColor=none;align=left;verticalAlign=top;spacingLeft=4;spacingRight=4;overflow=hidden;rotatable=0;points=[[0,0.5],[1,0.5]];portConstraint=eastwest;" parent="0hAFBkoV9jaoluaaZlGL-5" vertex="1">
          <mxGeometry y="26" width="140" height="24" as="geometry" />
        </mxCell>
        <mxCell id="LGmJAGL05ej20YnwsvgD-1" value="chalange: db" style="swimlane;fontStyle=0;childLayout=stackLayout;horizontal=1;startSize=26;fillColor=none;horizontalStack=0;resizeParent=1;resizeParentMax=0;resizeLast=0;collapsible=1;marginBottom=0;" vertex="1" parent="1">
          <mxGeometry x="530" y="70" width="140" height="110" as="geometry" />
        </mxCell>
        <mxCell id="LGmJAGL05ej20YnwsvgD-2" value="number_of_steps: int&#xa;create_at: date_time&#xa;deadline: date_time&#xa;name: str&#xa;reward: int" style="text;strokeColor=none;fillColor=none;align=left;verticalAlign=top;spacingLeft=4;spacingRight=4;overflow=hidden;rotatable=0;points=[[0,0.5],[1,0.5]];portConstraint=eastwest;" vertex="1" parent="LGmJAGL05ej20YnwsvgD-1">
          <mxGeometry y="26" width="140" height="84" as="geometry" />
        </mxCell>
        <mxCell id="LGmJAGL05ej20YnwsvgD-9" value="result_points: db" style="swimlane;fontStyle=0;childLayout=stackLayout;horizontal=1;startSize=26;fillColor=none;horizontalStack=0;resizeParent=1;resizeParentMax=0;resizeLast=0;collapsible=1;marginBottom=0;" vertex="1" parent="1">
          <mxGeometry x="530" y="310" width="140" height="100" as="geometry" />
        </mxCell>
        <mxCell id="LGmJAGL05ej20YnwsvgD-10" value="user_id: str&#xa;community: id&#xa;score; int&#xa;steps: int" style="text;strokeColor=none;fillColor=none;align=left;verticalAlign=top;spacingLeft=4;spacingRight=4;overflow=hidden;rotatable=0;points=[[0,0.5],[1,0.5]];portConstraint=eastwest;" vertex="1" parent="LGmJAGL05ej20YnwsvgD-9">
          <mxGeometry y="26" width="140" height="74" as="geometry" />
        </mxCell>
      </root>
    </mxGraphModel>
  </diagram>
</mxfile>
